<mxfile host="app.diagrams.net" modified="2023-06-21T13:20:36.067Z" agent="Mozilla/5.0 (Windows NT 10.0; Win64; x64) AppleWebKit/537.36 (KHTML, like Gecko) Chrome/114.0.0.0 Safari/537.36" etag="9QwEnwbIGY0jpoXgdhKz" version="21.5.0" type="device">
  <diagram name="Page-1" id="sCRu24f50M6Ak9PsRple">
    <mxGraphModel dx="1793" dy="1080" grid="1" gridSize="10" guides="1" tooltips="1" connect="1" arrows="1" fold="1" page="1" pageScale="1" pageWidth="850" pageHeight="1100" math="0" shadow="0">
      <root>
        <mxCell id="0" />
        <mxCell id="1" parent="0" />
        <mxCell id="V8V7ZaXbcWn_uOGgcU2I-14" value="" style="edgeStyle=orthogonalEdgeStyle;rounded=0;orthogonalLoop=1;jettySize=auto;html=1;" edge="1" parent="1" source="V8V7ZaXbcWn_uOGgcU2I-1" target="V8V7ZaXbcWn_uOGgcU2I-2">
          <mxGeometry relative="1" as="geometry" />
        </mxCell>
        <mxCell id="V8V7ZaXbcWn_uOGgcU2I-1" value="Provide full name and DOB" style="rounded=0;whiteSpace=wrap;html=1;" vertex="1" parent="1">
          <mxGeometry x="200" y="70" width="150" height="60" as="geometry" />
        </mxCell>
        <mxCell id="V8V7ZaXbcWn_uOGgcU2I-15" value="" style="edgeStyle=orthogonalEdgeStyle;rounded=0;orthogonalLoop=1;jettySize=auto;html=1;" edge="1" parent="1" source="V8V7ZaXbcWn_uOGgcU2I-2" target="V8V7ZaXbcWn_uOGgcU2I-3">
          <mxGeometry relative="1" as="geometry" />
        </mxCell>
        <mxCell id="V8V7ZaXbcWn_uOGgcU2I-2" value="For how long you are diagnosed with diabetics" style="rounded=0;whiteSpace=wrap;html=1;" vertex="1" parent="1">
          <mxGeometry x="200" y="176" width="150" height="60" as="geometry" />
        </mxCell>
        <mxCell id="V8V7ZaXbcWn_uOGgcU2I-16" value="" style="edgeStyle=orthogonalEdgeStyle;rounded=0;orthogonalLoop=1;jettySize=auto;html=1;" edge="1" parent="1" source="V8V7ZaXbcWn_uOGgcU2I-3" target="V8V7ZaXbcWn_uOGgcU2I-5">
          <mxGeometry relative="1" as="geometry" />
        </mxCell>
        <mxCell id="V8V7ZaXbcWn_uOGgcU2I-20" value="" style="edgeStyle=orthogonalEdgeStyle;rounded=0;orthogonalLoop=1;jettySize=auto;html=1;" edge="1" parent="1" source="V8V7ZaXbcWn_uOGgcU2I-3" target="V8V7ZaXbcWn_uOGgcU2I-4">
          <mxGeometry relative="1" as="geometry" />
        </mxCell>
        <mxCell id="V8V7ZaXbcWn_uOGgcU2I-3" value="Currently taking any medication?" style="rhombus;whiteSpace=wrap;html=1;" vertex="1" parent="1">
          <mxGeometry x="160" y="300" width="230" height="90" as="geometry" />
        </mxCell>
        <mxCell id="V8V7ZaXbcWn_uOGgcU2I-21" value="" style="edgeStyle=orthogonalEdgeStyle;rounded=0;orthogonalLoop=1;jettySize=auto;html=1;" edge="1" parent="1" source="V8V7ZaXbcWn_uOGgcU2I-4" target="V8V7ZaXbcWn_uOGgcU2I-6">
          <mxGeometry relative="1" as="geometry" />
        </mxCell>
        <mxCell id="V8V7ZaXbcWn_uOGgcU2I-4" value="" style="ellipse;whiteSpace=wrap;html=1;aspect=fixed;" vertex="1" parent="1">
          <mxGeometry x="260" y="430" width="30" height="30" as="geometry" />
        </mxCell>
        <mxCell id="V8V7ZaXbcWn_uOGgcU2I-5" value="Name of medicine and medication dose?" style="rounded=0;whiteSpace=wrap;html=1;" vertex="1" parent="1">
          <mxGeometry x="430" y="315" width="140" height="60" as="geometry" />
        </mxCell>
        <mxCell id="V8V7ZaXbcWn_uOGgcU2I-22" value="" style="edgeStyle=orthogonalEdgeStyle;rounded=0;orthogonalLoop=1;jettySize=auto;html=1;" edge="1" parent="1" source="V8V7ZaXbcWn_uOGgcU2I-6" target="V8V7ZaXbcWn_uOGgcU2I-7">
          <mxGeometry relative="1" as="geometry" />
        </mxCell>
        <mxCell id="V8V7ZaXbcWn_uOGgcU2I-6" value="Any specific symptoms?" style="rounded=0;whiteSpace=wrap;html=1;" vertex="1" parent="1">
          <mxGeometry x="195" y="490" width="160" height="60" as="geometry" />
        </mxCell>
        <mxCell id="V8V7ZaXbcWn_uOGgcU2I-23" value="" style="edgeStyle=orthogonalEdgeStyle;rounded=0;orthogonalLoop=1;jettySize=auto;html=1;" edge="1" parent="1" source="V8V7ZaXbcWn_uOGgcU2I-7" target="V8V7ZaXbcWn_uOGgcU2I-8">
          <mxGeometry relative="1" as="geometry" />
        </mxCell>
        <mxCell id="V8V7ZaXbcWn_uOGgcU2I-7" value="Recent blood sugar level?" style="rounded=0;whiteSpace=wrap;html=1;" vertex="1" parent="1">
          <mxGeometry x="194" y="590" width="160" height="60" as="geometry" />
        </mxCell>
        <mxCell id="V8V7ZaXbcWn_uOGgcU2I-24" value="" style="edgeStyle=orthogonalEdgeStyle;rounded=0;orthogonalLoop=1;jettySize=auto;html=1;" edge="1" parent="1" source="V8V7ZaXbcWn_uOGgcU2I-8" target="V8V7ZaXbcWn_uOGgcU2I-11">
          <mxGeometry relative="1" as="geometry" />
        </mxCell>
        <mxCell id="V8V7ZaXbcWn_uOGgcU2I-8" value="Any other medical&lt;br&gt;condition or allergy?" style="rounded=0;whiteSpace=wrap;html=1;" vertex="1" parent="1">
          <mxGeometry x="195" y="710" width="160" height="60" as="geometry" />
        </mxCell>
        <mxCell id="V8V7ZaXbcWn_uOGgcU2I-27" style="edgeStyle=orthogonalEdgeStyle;rounded=0;orthogonalLoop=1;jettySize=auto;html=1;entryX=1;entryY=0.5;entryDx=0;entryDy=0;" edge="1" parent="1" source="V8V7ZaXbcWn_uOGgcU2I-9" target="V8V7ZaXbcWn_uOGgcU2I-25">
          <mxGeometry relative="1" as="geometry">
            <Array as="points">
              <mxPoint x="477" y="915" />
            </Array>
          </mxGeometry>
        </mxCell>
        <mxCell id="V8V7ZaXbcWn_uOGgcU2I-9" value="Measure Health Data&lt;br&gt;using Hardware" style="rounded=0;whiteSpace=wrap;html=1;" vertex="1" parent="1">
          <mxGeometry x="410" y="810" width="135" height="60" as="geometry" />
        </mxCell>
        <mxCell id="V8V7ZaXbcWn_uOGgcU2I-26" style="edgeStyle=orthogonalEdgeStyle;rounded=0;orthogonalLoop=1;jettySize=auto;html=1;" edge="1" parent="1" source="V8V7ZaXbcWn_uOGgcU2I-11" target="V8V7ZaXbcWn_uOGgcU2I-25">
          <mxGeometry relative="1" as="geometry">
            <Array as="points">
              <mxPoint x="275" y="915" />
            </Array>
          </mxGeometry>
        </mxCell>
        <mxCell id="V8V7ZaXbcWn_uOGgcU2I-11" value="Extract info from chat" style="rounded=0;whiteSpace=wrap;html=1;" vertex="1" parent="1">
          <mxGeometry x="195" y="810" width="160" height="60" as="geometry" />
        </mxCell>
        <mxCell id="V8V7ZaXbcWn_uOGgcU2I-12" value="Generate Report" style="rounded=0;whiteSpace=wrap;html=1;" vertex="1" parent="1">
          <mxGeometry x="300" y="960" width="160" height="60" as="geometry" />
        </mxCell>
        <mxCell id="V8V7ZaXbcWn_uOGgcU2I-18" value="Yes" style="text;html=1;align=center;verticalAlign=middle;resizable=0;points=[];autosize=1;strokeColor=none;fillColor=none;" vertex="1" parent="1">
          <mxGeometry x="380" y="308" width="40" height="30" as="geometry" />
        </mxCell>
        <mxCell id="V8V7ZaXbcWn_uOGgcU2I-28" value="" style="edgeStyle=orthogonalEdgeStyle;rounded=0;orthogonalLoop=1;jettySize=auto;html=1;" edge="1" parent="1" source="V8V7ZaXbcWn_uOGgcU2I-25" target="V8V7ZaXbcWn_uOGgcU2I-12">
          <mxGeometry relative="1" as="geometry" />
        </mxCell>
        <mxCell id="V8V7ZaXbcWn_uOGgcU2I-25" value="" style="ellipse;whiteSpace=wrap;html=1;aspect=fixed;" vertex="1" parent="1">
          <mxGeometry x="365" y="900" width="30" height="30" as="geometry" />
        </mxCell>
      </root>
    </mxGraphModel>
  </diagram>
</mxfile>
